<svg width="332" height="149" viewBox="0 0 332 149" fill="none" xmlns="http://www.w3.org/2000/svg">
<path d="M48.996 21.807L7.08 110.249H0L45.454 14H52.538L97.993 110.249H90.909L48.996 21.807Z" fill="#C76385"/>
<path d="M189.716 66.6C189.716 39.444 171.984 23.2 145.944 23.2H122.136V110H145.944C171.984 110 189.716 93.756 189.716 66.6ZM183.392 66.6C183.392 90.532 168.264 104.544 145.324 104.544H128.088V28.656H145.324C168.264 28.656 183.392 42.668 183.392 66.6ZM262.609 79.372C262.733 77.884 262.857 76.52 262.857 75.404C262.857 56.432 251.201 46.016 235.825 46.016C219.705 46.016 205.197 57.176 205.197 78.876C205.197 100.824 220.325 111.736 236.693 111.736C245.001 111.736 252.317 109.38 258.641 104.668V98.344H257.897C251.945 103.8 244.877 106.528 236.817 106.528C223.549 106.528 211.025 97.6 210.777 79.372H262.609ZM211.025 74.536C212.637 59.532 222.805 51.224 235.701 51.224C248.101 51.224 256.781 59.16 257.401 74.536H211.025ZM321.948 47.752L299.876 100.948L277.804 47.752H271.48L298.016 110H301.612L328.148 47.752H321.948Z" fill="#6E6D72"/>
</svg>
