<svg width="100%" height="100%" viewBox="0 0 100% 100%" fill="none" xmlns="http://www.w3.org/2000/svg">
<g opacity="0.5" clip-path="url(#clip0_4275_14398)">
<g opacity="0.5">
<path d="M683.002 854.899H910.702L683.002 632.699V854.899Z" fill="#FEEFED" stroke="#FEEFED" stroke-linejoin="bevel"/>
<path d="M910.702 854.899V632.699H683.002L910.702 854.899Z" fill="#FFF5F7" stroke="#FFF5F7" stroke-linejoin="bevel"/>
<path d="M683.002 854.9V1077.1L910.702 854.9H683.002Z" fill="#FFFBFE" stroke="#FFFBFE" stroke-linejoin="bevel"/>
<path d="M683.002 1077.1H910.702V854.9L683.002 1077.1Z" fill="#F7E9DE" stroke="#F7E9DE" stroke-linejoin="bevel"/>
<path d="M910.702 632.7L683.002 410.4V632.7H910.702Z" fill="#F7E9DE" stroke="#F7E9DE" stroke-linejoin="bevel"/>
<path d="M910.702 632.7V410.4H683.002L910.702 632.7Z" fill="#FFFBFE" stroke="#FFFBFE" stroke-linejoin="bevel"/>
<path d="M455.302 632.699V854.899L683.002 632.699H455.302Z" fill="#FEF1F1" stroke="#FEF1F1" stroke-linejoin="bevel"/>
<path d="M683.002 632.699L455.302 854.899H683.002V632.699Z" fill="#FFFBFE" stroke="#FFFBFE" stroke-linejoin="bevel"/>
<path d="M683.002 854.9H455.302L683.002 1077.1V854.9Z" fill="#FFD0D0" stroke="#FFD0D0" stroke-linejoin="bevel"/>
<path d="M455.302 410.4V632.7H683.002L455.302 410.4Z" fill="#FFF5F7" stroke="#FFF5F7" stroke-linejoin="bevel"/>
<path d="M910.702 1077.1L1138.3 854.9H910.702V1077.1Z" fill="#FDEDEA" stroke="#FDEDEA" stroke-linejoin="bevel"/>
<path d="M910.702 854.899H1138.3L910.702 632.699V854.899Z" fill="#FEEFED" stroke="#FEEFED" stroke-linejoin="bevel"/>
<path d="M910.702 632.7H1138.3L910.702 410.4V632.7Z" fill="#FFF5F7" stroke="#FFF5F7" stroke-linejoin="bevel"/>
<path d="M1138.3 854.899V632.699H910.702L1138.3 854.899Z" fill="#FDEDEA" stroke="#FDEDEA" stroke-linejoin="bevel"/>
<path d="M455.302 854.9V1077.1H683.002L455.302 854.9Z" fill="#FFD0D0" stroke="#FFD0D0" stroke-linejoin="bevel"/>
<path d="M910.702 1077.1H1138.3V854.9L910.702 1077.1Z" fill="#FFF9FC" stroke="#FFF9FC" stroke-linejoin="bevel"/>
<path d="M683.002 410.4H455.302L683.002 632.7V410.4Z" fill="#FFF7FA" stroke="#FFF7FA" stroke-linejoin="bevel"/>
<path d="M1138.3 632.7V410.4H910.702L1138.3 632.7Z" fill="#FBECE6" stroke="#FBECE6" stroke-linejoin="bevel"/>
<path d="M910.702 410.399L683.002 188.199V410.399H910.702Z" fill="#FBECE6" stroke="#FBECE6" stroke-linejoin="bevel"/>
<path d="M683.002 410.399V188.199L455.302 410.399H683.002Z" fill="#FBECE6" stroke="#FBECE6" stroke-linejoin="bevel"/>
<path d="M910.702 188.199H683.002L910.702 410.399V188.199Z" fill="#FFF7FA" stroke="#FFF7FA" stroke-linejoin="bevel"/>
<path d="M455.302 1077.1L683.002 1299.3V1077.1H455.302Z" fill="#F9EAE2" stroke="#F9EAE2" stroke-linejoin="bevel"/>
<path d="M683.002 1077.1V1299.3L910.702 1077.1H683.002Z" fill="#F9EAE2" stroke="#F9EAE2" stroke-linejoin="bevel"/>
<path d="M910.702 1077.1V1299.3L1138.3 1077.1H910.702Z" fill="#FFFBFE" stroke="#FFFBFE" stroke-linejoin="bevel"/>
<path d="M1138.3 410.399L910.702 188.199V410.399H1138.3Z" fill="#FFF5F7" stroke="#FFF5F7" stroke-linejoin="bevel"/>
<path d="M683.002 1299.3H910.702V1077.1L683.002 1299.3Z" fill="#F9EAE2" stroke="#F9EAE2" stroke-linejoin="bevel"/>
<path d="M455.302 632.699L227.702 854.899H455.302V632.699Z" fill="#FEF1F1" stroke="#FEF1F1" stroke-linejoin="bevel"/>
<path d="M455.302 854.9H227.702L455.302 1077.1V854.9Z" fill="#FFFBFE" stroke="#FFFBFE" stroke-linejoin="bevel"/>
<path d="M455.302 1077.1V1299.3H683.002L455.302 1077.1Z" fill="#FEF1F1" stroke="#FEF1F1" stroke-linejoin="bevel"/>
<path d="M227.702 632.699V854.899L455.302 632.699H227.702Z" fill="#FBECE6" stroke="#FBECE6" stroke-linejoin="bevel"/>
<path d="M455.302 410.4L227.702 632.7H455.302V410.4Z" fill="#FFD0D0" stroke="#FFD0D0" stroke-linejoin="bevel"/>
<path d="M1366 1077.1V854.9L1138.3 1077.1H1366Z" fill="#FEF1F1" stroke="#FEF1F1" stroke-linejoin="bevel"/>
<path d="M1138.3 1077.1L1366 854.9H1138.3V1077.1Z" fill="#FDEDEA" stroke="#FDEDEA" stroke-linejoin="bevel"/>
<path d="M1138.3 854.899H1366L1138.3 632.699V854.899Z" fill="#FFD0D0" stroke="#FFD0D0" stroke-linejoin="bevel"/>
<path d="M1138.3 632.7H1366L1138.3 410.4V632.7Z" fill="#FFF9FC" stroke="#FFF9FC" stroke-linejoin="bevel"/>
<path d="M1366 854.899V632.699H1138.3L1366 854.899Z" fill="#FFF9FC" stroke="#FFF9FC" stroke-linejoin="bevel"/>
<path d="M683.002 188.199H455.302V410.399L683.002 188.199Z" fill="#FEEFED" stroke="#FEEFED" stroke-linejoin="bevel"/>
<path d="M455.302 410.4H227.702V632.7L455.302 410.4Z" fill="#F9EAE2" stroke="#F9EAE2" stroke-linejoin="bevel"/>
<path d="M227.702 1299.3H455.302V1077.1L227.702 1299.3Z" fill="#FDEDEA" stroke="#FDEDEA" stroke-linejoin="bevel"/>
<path d="M1366 410.399L1138.3 188.199V410.399H1366Z" fill="#FFD0D0" stroke="#FFD0D0" stroke-linejoin="bevel"/>
<path d="M1138.3 410.399V188.199H910.702L1138.3 410.399Z" fill="#F9EAE2" stroke="#F9EAE2" stroke-linejoin="bevel"/>
<path d="M910.702 1299.3H1138.3V1077.1L910.702 1299.3Z" fill="#FFFBFE" stroke="#FFFBFE" stroke-linejoin="bevel"/>
<path d="M227.702 854.9V1077.1H455.302L227.702 854.9Z" fill="#FFF9FC" stroke="#FFF9FC" stroke-linejoin="bevel"/>
<path d="M455.302 188.199L227.702 410.399H455.302V188.199Z" fill="#FFF5F7" stroke="#FFF5F7" stroke-linejoin="bevel"/>
<path d="M1138.3 1299.3L1366 1077.1H1138.3V1299.3Z" fill="#FFF7FA" stroke="#FFF7FA" stroke-linejoin="bevel"/>
<path d="M1366 632.7V410.4H1138.3L1366 632.7Z" fill="#FDEDEA" stroke="#FDEDEA" stroke-linejoin="bevel"/>
<path d="M455.302 1299.3L683.002 1521.6V1299.3H455.302Z" fill="#F7E9DE" stroke="#F7E9DE" stroke-linejoin="bevel"/>
<path d="M683.002 1299.3V1521.6L910.702 1299.3H683.002Z" fill="#FFD0D0" stroke="#FFD0D0" stroke-linejoin="bevel"/>
<path d="M910.702 1299.3V1521.6L1138.3 1299.3H910.702Z" fill="#FBECE6" stroke="#FBECE6" stroke-linejoin="bevel"/>
<path d="M1138.3 188.2L910.702 -34V188.2H1138.3Z" fill="#FFF5F7" stroke="#FFF5F7" stroke-linejoin="bevel"/>
<path d="M910.702 188.2V-34L683.002 188.2H910.702Z" fill="#FFF7FA" stroke="#FFF7FA" stroke-linejoin="bevel"/>
<path d="M683.002 188.2V-34L455.302 188.2H683.002Z" fill="#F7E9DE" stroke="#F7E9DE" stroke-linejoin="bevel"/>
<path d="M910.702 -34H683.002V188.2L910.702 -34Z" fill="#FEEFED" stroke="#FEEFED" stroke-linejoin="bevel"/>
<path d="M683.002 1521.6H910.702V1299.3L683.002 1521.6Z" fill="#FEF1F1" stroke="#FEF1F1" stroke-linejoin="bevel"/>
<path d="M455.302 -34L227.702 188.2H455.302V-34Z" fill="#FFF9FC" stroke="#FFF9FC" stroke-linejoin="bevel"/>
<path d="M455.302 188.199H227.702V410.399L455.302 188.199Z" fill="#FFFBFE" stroke="#FFFBFE" stroke-linejoin="bevel"/>
<path d="M455.302 1299.3V1521.6H683.002L455.302 1299.3Z" fill="#FFFBFE" stroke="#FFFBFE" stroke-linejoin="bevel"/>
<path d="M227.702 1077.1V1299.3L455.302 1077.1H227.702Z" fill="#FFD0D0" stroke="#FFD0D0" stroke-linejoin="bevel"/>
<path d="M1366 410.399V188.199H1138.3L1366 410.399Z" fill="#FFF7FA" stroke="#FFF7FA" stroke-linejoin="bevel"/>
<path d="M1138.3 188.2V-34H910.702L1138.3 188.2Z" fill="#FFF5F7" stroke="#FFF5F7" stroke-linejoin="bevel"/>
<path d="M1138.3 1521.6L1366 1299.3H1138.3V1521.6Z" fill="#FFF9FC" stroke="#FFF9FC" stroke-linejoin="bevel"/>
<path d="M1138.3 1299.3H1366V1077.1L1138.3 1299.3Z" fill="#FFF7FA" stroke="#FFF7FA" stroke-linejoin="bevel"/>
<path d="M227.702 854.9H0.00195312L227.702 1077.1V854.9Z" fill="#FEF1F1" stroke="#FEF1F1" stroke-linejoin="bevel"/>
<path d="M227.702 1077.1L0.00195312 1299.3H227.702V1077.1Z" fill="#FEEFED" stroke="#FEEFED" stroke-linejoin="bevel"/>
<path d="M227.702 632.699L0.00195312 854.899H227.702V632.699Z" fill="#FEEFED" stroke="#FEEFED" stroke-linejoin="bevel"/>
<path d="M0.00195312 632.699V854.899L227.702 632.699H0.00195312Z" fill="#FFF5F7" stroke="#FFF5F7" stroke-linejoin="bevel"/>
<path d="M0.00195312 632.7H227.702V410.4L0.00195312 632.7Z" fill="#F7E9DE" stroke="#F7E9DE" stroke-linejoin="bevel"/>
<path d="M0.00195312 410.4V632.7L227.702 410.4H0.00195312Z" fill="#F7E9DE" stroke="#F7E9DE" stroke-linejoin="bevel"/>
<path d="M227.702 1299.3L455.302 1521.6V1299.3H227.702Z" fill="#FEF1F1" stroke="#FEF1F1" stroke-linejoin="bevel"/>
<path d="M1366 188.2L1138.3 -34V188.2H1366Z" fill="#FFF7FA" stroke="#FFF7FA" stroke-linejoin="bevel"/>
<path d="M683.002 -34H455.302V188.2L683.002 -34Z" fill="#FBECE6" stroke="#FBECE6" stroke-linejoin="bevel"/>
<path d="M910.702 1521.6H1138.3V1299.3L910.702 1521.6Z" fill="#FFF5F7" stroke="#FFF5F7" stroke-linejoin="bevel"/>
<path d="M0.00195312 854.9V1077.1H227.702L0.00195312 854.9Z" fill="#FFF9FC" stroke="#FFF9FC" stroke-linejoin="bevel"/>
<path d="M227.702 188.199L0.00195312 410.399H227.702V188.199Z" fill="#FFD0D0" stroke="#FFD0D0" stroke-linejoin="bevel"/>
<path d="M455.302 -34H227.702V188.2L455.302 -34Z" fill="#FFF9FC" stroke="#FFF9FC" stroke-linejoin="bevel"/>
<path d="M227.702 188.199H0.00195312V410.399L227.702 188.199Z" fill="#FEEFED" stroke="#FEEFED" stroke-linejoin="bevel"/>
<path d="M0.00195312 1299.3L227.702 1521.6V1299.3H0.00195312Z" fill="#FEEFED" stroke="#FEEFED" stroke-linejoin="bevel"/>
<path d="M227.702 1299.3V1521.6H455.302L227.702 1299.3Z" fill="#FFF5F7" stroke="#FFF5F7" stroke-linejoin="bevel"/>
<path d="M1366 188.2V-34H1138.3L1366 188.2Z" fill="#FFF9FC" stroke="#FFF9FC" stroke-linejoin="bevel"/>
<path d="M1138.3 1521.6H1366V1299.3L1138.3 1521.6Z" fill="#FEEFED" stroke="#FEEFED" stroke-linejoin="bevel"/>
<path d="M0.00195312 1077.1V1299.3L227.702 1077.1H0.00195312Z" fill="#F9EAE2" stroke="#F9EAE2" stroke-linejoin="bevel"/>
<path d="M227.702 -34L0.00195312 188.2H227.702V-34Z" fill="#FFD0D0" stroke="#FFD0D0" stroke-linejoin="bevel"/>
<path d="M910.702 1521.6V1743.8L1138.3 1521.6H910.702Z" fill="#FEF1F1" stroke="#FEF1F1" stroke-linejoin="bevel"/>
<path d="M1138.3 1521.6V1743.8L1366 1521.6H1138.3Z" fill="#FEEFED" stroke="#FEEFED" stroke-linejoin="bevel"/>
<path d="M683.002 1521.6L910.702 1743.8V1521.6H683.002Z" fill="#FFFBFE" stroke="#FFFBFE" stroke-linejoin="bevel"/>
<path d="M683.002 1743.8H910.702L683.002 1521.6V1743.8Z" fill="#F7E9DE" stroke="#F7E9DE" stroke-linejoin="bevel"/>
<path d="M683.002 1743.8V1521.6H455.302L683.002 1743.8Z" fill="#FBECE6" stroke="#FBECE6" stroke-linejoin="bevel"/>
<path d="M455.302 1743.8H683.002L455.302 1521.6V1743.8Z" fill="#FFFBFE" stroke="#FFFBFE" stroke-linejoin="bevel"/>
<path d="M227.702 1521.6L455.302 1743.8V1521.6H227.702Z" fill="#FFD0D0" stroke="#FFD0D0" stroke-linejoin="bevel"/>
<path d="M910.702 1743.8H1138.3V1521.6L910.702 1743.8Z" fill="#FBECE6" stroke="#FBECE6" stroke-linejoin="bevel"/>
<path d="M227.702 -34H0.00195312V188.2L227.702 -34Z" fill="#FFF5F7" stroke="#FFF5F7" stroke-linejoin="bevel"/>
<path d="M0.00195312 1299.3V1521.6H227.702L0.00195312 1299.3Z" fill="#FDEDEA" stroke="#FDEDEA" stroke-linejoin="bevel"/>
<path d="M227.702 1521.6V1743.8H455.302L227.702 1521.6Z" fill="#FEF1F1" stroke="#FEF1F1" stroke-linejoin="bevel"/>
<path d="M0.00195312 1521.6L227.702 1743.8V1521.6H0.00195312Z" fill="#FFF9FC" stroke="#FFF9FC" stroke-linejoin="bevel"/>
<path d="M1138.3 1743.8H1366V1521.6L1138.3 1743.8Z" fill="#FEF1F1" stroke="#FEF1F1" stroke-linejoin="bevel"/>
<path d="M910.702 1743.8V1966L1138.3 1743.8H910.702Z" fill="#F9EAE2" stroke="#F9EAE2" stroke-linejoin="bevel"/>
<path d="M1138.3 1743.8V1966L1366 1743.8H1138.3Z" fill="#FEEFED" stroke="#FEEFED" stroke-linejoin="bevel"/>
<path d="M683.002 1743.8V1966L910.702 1743.8H683.002Z" fill="#F7E9DE" stroke="#F7E9DE" stroke-linejoin="bevel"/>
<path d="M455.302 1743.8L683.002 1966V1743.8H455.302Z" fill="#FFFBFE" stroke="#FFFBFE" stroke-linejoin="bevel"/>
<path d="M455.302 1966H683.002L455.302 1743.8V1966Z" fill="#FFFBFE" stroke="#FFFBFE" stroke-linejoin="bevel"/>
<path d="M683.002 1966H910.702V1743.8L683.002 1966Z" fill="#FFFBFE" stroke="#FFFBFE" stroke-linejoin="bevel"/>
<path d="M227.702 1743.8L455.302 1966V1743.8H227.702Z" fill="#FDEDEA" stroke="#FDEDEA" stroke-linejoin="bevel"/>
<path d="M910.702 1966H1138.3V1743.8L910.702 1966Z" fill="#FFD0D0" stroke="#FFD0D0" stroke-linejoin="bevel"/>
<path d="M0.00195312 1521.6V1743.8H227.702L0.00195312 1521.6Z" fill="#FFF9FC" stroke="#FFF9FC" stroke-linejoin="bevel"/>
<path d="M227.702 1743.8V1966H455.302L227.702 1743.8Z" fill="#F9EAE2" stroke="#F9EAE2" stroke-linejoin="bevel"/>
<path d="M0.00195312 1743.8L227.702 1966V1743.8H0.00195312Z" fill="#F9EAE2" stroke="#F9EAE2" stroke-linejoin="bevel"/>
<path d="M1138.3 1966H1366V1743.8L1138.3 1966Z" fill="#FFD0D0" stroke="#FFD0D0" stroke-linejoin="bevel"/>
<path d="M0.00195312 1743.8V1966H227.702L0.00195312 1743.8Z" fill="#FFFBFE" stroke="#FFFBFE" stroke-linejoin="bevel"/>
</g>
</g>
<defs>
<clipPath id="clip0_4275_14398">
<rect width="1366" height="2000" fill="white" transform="translate(0.00195312 -34)"/>
</clipPath>
</defs>
</svg>
