<svg width="25" height="24" viewBox="0 0 25 24" fill="none" xmlns="http://www.w3.org/2000/svg">
<path d="M9.5 22H15.5C20.5 22 22.5 20 22.5 15V9C22.5 4 20.5 2 15.5 2H9.5C4.5 2 2.5 4 2.5 9V15C2.5 20 4.5 22 9.5 22Z" stroke="#333333" stroke-width="1.5" stroke-linecap="round" stroke-linejoin="round"/>
<path d="M17.5 2.44043V12.4204C17.5 14.3904 16.09 15.1604 14.36 14.1204L13.04 13.3304C12.74 13.1504 12.26 13.1504 11.96 13.3304L10.64 14.1204C8.91 15.1504 7.5 14.3904 7.5 12.4204V2.44043" stroke="#333333" stroke-width="1.5" stroke-linecap="round" stroke-linejoin="round"/>
<path d="M9.5 22H15.5C20.5 22 22.5 20 22.5 15V9C22.5 4 20.5 2 15.5 2H9.5C4.5 2 2.5 4 2.5 9V15C2.5 20 4.5 22 9.5 22Z" stroke="#333333" stroke-width="1.5" stroke-linecap="round" stroke-linejoin="round"/>
<path d="M17.5 2.44043V12.4204C17.5 14.3904 16.09 15.1604 14.36 14.1204L13.04 13.3304C12.74 13.1504 12.26 13.1504 11.96 13.3304L10.64 14.1204C8.91 15.1504 7.5 14.3904 7.5 12.4204V2.44043" stroke="#333333" stroke-width="1.5" stroke-linecap="round" stroke-linejoin="round"/>
</svg>
