<svg width="156" height="223" viewBox="0 0 156 223" fill="none" xmlns="http://www.w3.org/2000/svg">
<g opacity="0.25" clip-path="url(#clip0_341_1476)">
<path d="M155.349 222.332V73.9371C155.349 33.4647 122.64 0.653809 82.2927 0.653809C41.945 0.653809 9.23633 33.4647 9.23633 73.9371V184.882" stroke="#94543D" stroke-width="2" stroke-linecap="round" stroke-linejoin="round"/>
<path d="M112.461 168.681C112.461 168.681 122.839 155.026 125.169 150.142C127.936 144.342 132.571 140.349 131.38 137.941C130.19 135.533 127.28 134.34 123.868 135.885C120.456 137.429 116.284 143.523 114.42 146.351C106.417 158.517 95.9805 162.911 95.9805 162.911" stroke="#94543D" stroke-width="2" stroke-linecap="round" stroke-linejoin="round"/>
<path d="M83.4609 160.705C83.4609 160.705 90.4343 153.165 91.2797 151.713C93.8955 147.225 95.9232 143.077 97.0953 137.83C98.3756 132.105 100.53 124.857 107.085 124.555C113.64 124.253 108.649 132.368 107.912 135.473C107.561 136.956 105.939 143.645 105.198 147.183C104.381 151.125 102.978 153.652 99.513 160.987" stroke="#94543D" stroke-width="2" stroke-linecap="round" stroke-linejoin="round"/>
<path d="M72.9648 158.122C72.9648 158.122 77.6451 152.959 78.611 151.493C79.2868 150.465 81.7189 144.646 82.5438 142.785C83.4505 140.729 84.255 133.183 88.4513 132.247C92.1269 131.425 91.6797 135.072 91.5143 135.996C91.4735 136.22 91.4408 136.444 91.4122 136.668C91.1896 138.379 90.4075 144.34 90.042 146.163C89.6132 148.3 85.9233 156.872 84.3735 159.706" stroke="#94543D" stroke-width="2" stroke-linecap="round" stroke-linejoin="round"/>
<path d="M30.7568 222.332C30.7568 222.332 33.8811 200.069 38.594 194.382C43.3069 188.694 59.2283 197.643 86.8136 192.023C97.3319 189.881 107.575 189.675 113.053 189.597C114.879 189.57 119.767 187.915 121.368 187.07C126.677 184.267 135.844 180.186 139.773 177.492C142.654 175.518 151.541 172.162 149.983 168.706C148.504 165.445 143.94 163.759 138.882 165.294C132.552 167.217 120.668 173.371 118.162 173.822C115.508 174.301 112.022 174.315 112.022 174.315" stroke="#94543D" stroke-width="2" stroke-linecap="round" stroke-linejoin="round"/>
<path d="M71.9132 185.659C71.9132 185.659 87.512 183.208 91.2182 180.905C104.791 172.475 109.778 177.535 112.012 174.325C113.668 171.934 113.509 169.378 110.409 166.606C106.803 163.384 99.0023 162.031 94.1934 163.316C91.061 164.131 72.9894 168.116 70.2449 166.759C67.5005 165.401 51.5566 157.804 47.4073 157.697C42.2717 157.561 34.8715 157.763 30.614 160.713C5.08293 178.413 0.664062 208.639 0.664062 208.639" stroke="#94543D" stroke-width="2" stroke-linecap="round" stroke-linejoin="round"/>
<path d="M48.0869 157.682C48.0869 157.682 56.4693 156.467 63.7347 158.787C63.7347 158.787 67.5798 158.122 73.5628 158.32C81.9656 158.597 88.2141 164.209 88.2141 164.209" stroke="#94543D" stroke-width="2" stroke-linecap="round" stroke-linejoin="round"/>
<path d="M112.543 173.579C112.543 173.579 112.579 172.014 110.611 171.428C108.642 170.842 104.638 170.092 102.688 171.502C100.25 173.262 102.543 175.547 102.543 175.547" stroke="#94543D" stroke-width="2" stroke-linecap="round" stroke-linejoin="round"/>
<path d="M115.716 101.486C102.898 99.3909 94.2527 97.6534 85.0862 95.1017C82.5807 85.8487 80.8858 77.1448 78.8459 64.2297C76.7651 77.1386 75.0417 85.8426 72.5055 95.0729C63.3145 97.6041 54.6646 99.3148 41.8389 101.371C54.6585 103.466 63.3022 105.202 72.4687 107.745C74.9743 116.998 76.6712 125.702 78.7111 138.617C80.7919 125.71 82.5153 117.004 85.0515 107.774C94.2405 105.247 102.89 103.538 115.716 101.486Z" fill="#94543D"/>
<path d="M119.03 57.7589C110.615 56.3833 104.941 55.2441 98.9188 53.5683C97.273 47.4984 96.1601 41.7801 94.8206 33.3105C93.4545 41.7842 92.3232 47.4984 90.659 53.5621C84.631 55.2195 78.9522 56.3401 70.5352 57.689C78.9482 59.0646 84.6249 60.2037 90.6467 61.8795C92.2803 67.9494 93.4034 73.6678 94.743 82.1455C96.1091 73.6719 97.2403 67.9577 98.9045 61.8919C104.933 60.2284 110.611 59.1077 119.03 57.7589Z" fill="#94543D"/>
<path d="M70.1754 34.9856C65.9704 34.3004 63.1348 33.7329 60.1257 32.8981C59.3032 29.8744 58.7471 27.0258 58.0778 22.8066C57.3951 27.0278 56.8298 29.8744 55.9982 32.895C52.9861 33.7206 50.1484 34.2789 45.9424 34.9508C50.1464 35.6361 52.983 36.2035 55.9921 37.0384C56.8084 40.0621 57.3696 42.9107 58.039 47.1339C58.7216 42.9127 59.2869 40.0662 60.1185 37.0445C63.1307 36.2158 65.9684 35.6576 70.1754 34.9856Z" fill="#94543D"/>
<path d="M144.165 78.9748C141.102 78.4731 139.023 78.0577 136.813 77.447C136.213 75.2304 135.807 73.1434 135.319 70.0447C134.82 73.129 134.408 75.2243 133.799 77.4368C131.6 78.0413 129.528 78.4505 126.448 78.9419C129.511 79.4457 131.59 79.861 133.789 80.4717C134.39 82.6883 134.796 84.7754 135.284 87.8741C135.782 84.7898 136.197 82.6965 136.803 80.4841C139.021 79.8775 141.102 79.4683 144.165 78.9748Z" fill="#94543D"/>
<path d="M41.8388 112.925C38.7758 112.423 36.6971 112.006 34.4999 111.395C33.8996 109.18 33.4932 107.093 33.0031 103.993C32.5049 107.077 32.0924 109.17 31.4859 111.395C29.2847 112 27.212 112.409 24.1348 112.9C27.1978 113.402 29.2765 113.817 31.4737 114.43C32.074 116.645 32.4804 118.732 32.9705 121.832C33.4687 118.748 33.8812 116.653 34.4877 114.43C36.6951 113.825 38.7677 113.416 41.8388 112.925Z" fill="#94543D"/>
<path d="M126.467 121.834C124.389 121.523 122.329 121.094 120.299 120.547C119.764 118.499 119.347 116.422 119.049 114.325C118.74 116.419 118.313 118.492 117.771 120.537C115.739 121.079 113.678 121.501 111.598 121.804C113.677 122.113 115.736 122.542 117.767 123.089C118.304 125.135 118.724 127.21 119.024 129.305C119.332 127.211 119.758 125.137 120.301 123.093C122.331 122.556 124.39 122.136 126.467 121.834V121.834Z" fill="#94543D"/>
<path d="M60.6477 85.8179C60.6469 86.4865 60.4492 87.1398 60.0796 87.6952C59.7101 88.2507 59.1853 88.6833 58.5715 88.9384C57.9578 89.1935 57.2827 89.2596 56.6317 89.1284C55.9807 88.9972 55.3829 88.6745 54.914 88.2012C54.445 87.7278 54.126 87.1251 53.9973 86.4692C53.8686 85.8133 53.9359 85.1337 54.1907 84.5163C54.4455 83.899 54.8764 83.3715 55.429 83.0008C55.9815 82.63 56.6308 82.4325 57.2947 82.4334C57.7356 82.4339 58.172 82.5219 58.5791 82.6922C58.9862 82.8626 59.3559 83.1121 59.6673 83.4264C59.9786 83.7406 60.2255 84.1136 60.3937 84.5239C60.5619 84.9343 60.6482 85.3739 60.6477 85.8179V85.8179Z" stroke="#94543D" stroke-width="2" stroke-linecap="round" stroke-linejoin="round"/>
<path d="M111.901 70.8137C111.901 71.3253 111.749 71.8252 111.466 72.2501C111.183 72.6751 110.781 73.006 110.312 73.201C109.842 73.396 109.325 73.4464 108.827 73.3458C108.329 73.2452 107.872 72.9981 107.513 72.6358C107.154 72.2734 106.911 71.8121 106.812 71.3102C106.714 70.8083 106.766 70.2883 106.961 69.8159C107.156 69.3436 107.486 68.9401 107.909 68.6566C108.332 68.373 108.829 68.2221 109.337 68.2229C109.674 68.2234 110.008 68.2909 110.319 68.4214C110.631 68.5519 110.914 68.7429 111.152 68.9834C111.39 69.224 111.579 69.5095 111.707 69.8235C111.836 70.1376 111.902 70.474 111.901 70.8137V70.8137Z" stroke="#94543D" stroke-width="2" stroke-linecap="round" stroke-linejoin="round"/>
<path d="M70.2138 124.411C70.2134 124.923 70.0623 125.423 69.7795 125.848C69.4967 126.273 69.095 126.604 68.6252 126.8C68.1554 126.995 67.6387 127.046 67.1403 126.945C66.642 126.844 66.1845 126.597 65.8257 126.235C65.4669 125.872 65.2229 125.411 65.1246 124.909C65.0264 124.407 65.0782 123.887 65.2737 123.414C65.4691 122.942 65.7993 122.538 66.2225 122.255C66.6457 121.971 67.1429 121.821 67.6511 121.822C67.9882 121.823 68.3219 121.89 68.6331 122.02C68.9443 122.151 69.2269 122.342 69.4649 122.582C69.7029 122.822 69.8915 123.108 70.02 123.421C70.1485 123.735 70.2144 124.071 70.2138 124.411Z" stroke="#94543D" stroke-width="2" stroke-linecap="round" stroke-linejoin="round"/>
</g>
<defs>
<clipPath id="clip0_341_1476">
<rect width="156" height="223" fill="white"/>
</clipPath>
</defs>
</svg>
