<svg width="49" height="48" viewBox="0 0 49 48" fill="none" xmlns="http://www.w3.org/2000/svg">
<path d="M14.0184 44H34.9784C40.4984 44 42.6984 40.62 42.9584 36.5L43.9984 19.98C44.2784 15.66 40.8384 12 36.4984 12C35.2784 12 34.1584 11.3 33.5984 10.22L32.1584 7.32C31.2384 5.5 28.8384 4 26.7984 4H22.2184C20.1584 4 17.7584 5.5 16.8384 7.32L15.3984 10.22C14.8384 11.3 13.7184 12 12.4984 12C8.15838 12 4.71838 15.66 4.99838 19.98L6.03838 36.5C6.27838 40.62 8.49838 44 14.0184 44Z" stroke="#292D32" stroke-width="2" stroke-linecap="round" stroke-linejoin="round"/>
<path d="M21.498 16H27.498" stroke="#292D32" stroke-width="2" stroke-linecap="round" stroke-linejoin="round"/>
<path d="M24.498 36C28.078 36 30.998 33.08 30.998 29.5C30.998 25.92 28.078 23 24.498 23C20.918 23 17.998 25.92 17.998 29.5C17.998 33.08 20.918 36 24.498 36Z" stroke="#292D32" stroke-width="2" stroke-linecap="round" stroke-linejoin="round"/>
</svg>
