<svg width="16" height="17" viewBox="0 0 16 17" fill="none" xmlns="http://www.w3.org/2000/svg">
<path d="M5.66667 13.1667H5.33333C2.66667 13.1667 1.33333 12.5 1.33333 9.16671V5.83337C1.33333 3.16671 2.66667 1.83337 5.33333 1.83337H10.6667C13.3333 1.83337 14.6667 3.16671 14.6667 5.83337V9.16671C14.6667 11.8334 13.3333 13.1667 10.6667 13.1667H10.3333C10.1267 13.1667 9.92667 13.2667 9.8 13.4334L8.8 14.7667C8.36 15.3534 7.64 15.3534 7.2 14.7667L6.2 13.4334C6.09333 13.2867 5.84667 13.1667 5.66667 13.1667Z" stroke="#292D32" stroke-miterlimit="10" stroke-linecap="round" stroke-linejoin="round"/>
<path d="M4.66667 5.83337H11.3333" stroke="#292D32" stroke-linecap="round" stroke-linejoin="round"/>
<path d="M4.66667 9.16663H8.66667" stroke="#292D32" stroke-linecap="round" stroke-linejoin="round"/>
</svg>
