<svg width="17" height="16" viewBox="0 0 17 16" fill="none" xmlns="http://www.w3.org/2000/svg">
<path d="M11.6654 8.59967V11.3997C11.6654 13.733 10.732 14.6663 8.3987 14.6663H5.5987C3.26536 14.6663 2.33203 13.733 2.33203 11.3997V8.59967C2.33203 6.26634 3.26536 5.33301 5.5987 5.33301H8.3987C10.732 5.33301 11.6654 6.26634 11.6654 8.59967Z" stroke="#B23A48" stroke-width="1.5" stroke-linecap="round" stroke-linejoin="round"/>
<path d="M15.6654 4.59967V7.39967C15.6654 9.73301 14.732 10.6663 12.3987 10.6663H11.6654V8.59967C11.6654 6.26634 10.732 5.33301 8.3987 5.33301H6.33203V4.59967C6.33203 2.26634 7.26536 1.33301 9.5987 1.33301H12.3987C14.732 1.33301 15.6654 2.26634 15.6654 4.59967Z" stroke="#B23A48" stroke-width="1.5" stroke-linecap="round" stroke-linejoin="round"/>
</svg>
