<svg width="25" height="24" viewBox="0 0 25 24" fill="none" xmlns="http://www.w3.org/2000/svg">
<path d="M18.002 7.16C17.942 7.15 17.872 7.15 17.812 7.16C16.432 7.11 15.332 5.98 15.332 4.58C15.332 3.15 16.482 2 17.912 2C19.342 2 20.492 3.16 20.492 4.58C20.482 5.98 19.382 7.11 18.002 7.16Z" stroke="#79747E" stroke-width="1.5" stroke-linecap="round" stroke-linejoin="round"/>
<path d="M16.9724 14.4402C18.3424 14.6702 19.8524 14.4302 20.9124 13.7202C22.3224 12.7802 22.3224 11.2402 20.9124 10.3002C19.8424 9.59016 18.3124 9.35016 16.9424 9.59016" stroke="#79747E" stroke-width="1.5" stroke-linecap="round" stroke-linejoin="round"/>
<path d="M5.97242 7.16C6.03242 7.15 6.10242 7.15 6.16242 7.16C7.54242 7.11 8.64242 5.98 8.64242 4.58C8.64242 3.15 7.49242 2 6.06242 2C4.63242 2 3.48242 3.16 3.48242 4.58C3.49242 5.98 4.59242 7.11 5.97242 7.16Z" stroke="#79747E" stroke-width="1.5" stroke-linecap="round" stroke-linejoin="round"/>
<path d="M7.00238 14.4402C5.63238 14.6702 4.12238 14.4302 3.06238 13.7202C1.65238 12.7802 1.65238 11.2402 3.06238 10.3002C4.13238 9.59016 5.66238 9.35016 7.03238 9.59016" stroke="#79747E" stroke-width="1.5" stroke-linecap="round" stroke-linejoin="round"/>
<path d="M12.002 14.6307C11.942 14.6207 11.872 14.6207 11.812 14.6307C10.432 14.5807 9.33203 13.4507 9.33203 12.0507C9.33203 10.6207 10.482 9.4707 11.912 9.4707C13.342 9.4707 14.492 10.6307 14.492 12.0507C14.482 13.4507 13.382 14.5907 12.002 14.6307Z" stroke="#79747E" stroke-width="1.5" stroke-linecap="round" stroke-linejoin="round"/>
<path d="M9.09168 17.7813C7.68168 18.7213 7.68168 20.2613 9.09168 21.2013C10.6917 22.2713 13.3117 22.2713 14.9117 21.2013C16.3217 20.2613 16.3217 18.7213 14.9117 17.7813C13.3217 16.7213 10.6917 16.7213 9.09168 17.7813Z" stroke="#79747E" stroke-width="1.5" stroke-linecap="round" stroke-linejoin="round"/>
</svg>
