<svg width="32" height="32" viewBox="0 0 32 32" fill="none" xmlns="http://www.w3.org/2000/svg">
<path d="M27.7734 9.91992L16.0001 16.7332L4.3068 9.95988" stroke="#2D574C" stroke-width="1.5" stroke-linecap="round" stroke-linejoin="round"/>
<path d="M16 28.8132V16.7198" stroke="#2D574C" stroke-width="1.5" stroke-linecap="round" stroke-linejoin="round"/>
<path d="M18.7592 3.30663L25.8792 7.26667C27.4925 8.16 28.8125 10.4 28.8125 12.24V19.7733C28.8125 21.6133 27.4925 23.8533 25.8792 24.7466L18.7592 28.7067C17.2392 29.5467 14.7459 29.5467 13.2259 28.7067L6.10583 24.7466C4.4925 23.8533 3.17253 21.6133 3.17253 19.7733V12.24C3.17253 10.4 4.4925 8.16 6.10583 7.26667L13.2259 3.30663C14.7592 2.45329 17.2392 2.45329 18.7592 3.30663Z" stroke="#2D574C" stroke-width="1.5" stroke-linecap="round" stroke-linejoin="round"/>
<path d="M9.33301 17.6534V12.7734L21.9863 5.46667" stroke="#2D574C" stroke-width="1.5" stroke-linecap="round" stroke-linejoin="round"/>
</svg>
