<svg width="42" height="42" viewBox="0 0 42 42" fill="none" xmlns="http://www.w3.org/2000/svg">
<path d="M4.17474 26.5734L0.977966 23.3766C-0.325989 22.0726 -0.325989 19.9274 0.977966 18.6234L4.17474 15.4266C4.72156 14.8798 5.16322 13.8072 5.16322 13.05V8.5282C5.16322 6.67743 6.67751 5.16321 8.52828 5.16321H13.05C13.8072 5.16321 14.8798 4.72161 15.4266 4.1748L18.6234 0.977965C19.9273 -0.325988 22.0726 -0.325988 23.3765 0.977965L26.5734 4.1748C27.1202 4.72161 28.1928 5.16321 28.9499 5.16321H33.4717C35.3225 5.16321 36.8367 6.67743 36.8367 8.5282V13.05C36.8367 13.8072 37.2784 14.8798 37.8252 15.4266L41.022 18.6234C42.326 19.9274 42.326 22.0726 41.022 23.3766L37.8252 26.5734C37.2784 27.1202 36.8367 28.1928 36.8367 28.95V33.4715C36.8367 35.3223 35.3225 36.8368 33.4717 36.8368H28.9499C28.1928 36.8368 27.1202 37.2784 26.5734 37.8252L23.3765 41.022C22.0726 42.326 19.9273 42.326 18.6234 41.022L15.4266 37.8252C14.8798 37.2784 13.8072 36.8368 13.05 36.8368H8.52828C6.67751 36.8368 5.16322 35.3223 5.16322 33.4715V28.95C5.16322 28.1718 4.72156 27.0992 4.17474 26.5734Z" fill="#B23A48"/>
</svg>
