<svg width="25" height="24" viewBox="0 0 25 24" fill="none" xmlns="http://www.w3.org/2000/svg">
<path d="M17.002 21H7.00195C3.00195 21 2.00195 20 2.00195 16V8C2.00195 4 3.00195 3 7.00195 3H17.002C21.002 3 22.002 4 22.002 8V16C22.002 20 21.002 21 17.002 21Z" stroke="#79747E" stroke-width="1.5" stroke-linecap="round" stroke-linejoin="round"/>
<path d="M14.002 8H19.002" stroke="#79747E" stroke-width="1.5" stroke-linecap="round" stroke-linejoin="round"/>
<path d="M15.002 12H19.002" stroke="#79747E" stroke-width="1.5" stroke-linecap="round" stroke-linejoin="round"/>
<path d="M17.002 16H19.002" stroke="#79747E" stroke-width="1.5" stroke-linecap="round" stroke-linejoin="round"/>
<path d="M8.50238 11.2899C9.50202 11.2899 10.3124 10.4796 10.3124 9.47992C10.3124 8.48029 9.50202 7.66992 8.50238 7.66992C7.50275 7.66992 6.69238 8.48029 6.69238 9.47992C6.69238 10.4796 7.50275 11.2899 8.50238 11.2899Z" stroke="#79747E" stroke-width="1.5" stroke-linecap="round" stroke-linejoin="round"/>
<path d="M12.002 16.3298C11.862 14.8798 10.712 13.7398 9.26195 13.6098C8.76195 13.5598 8.25195 13.5598 7.74195 13.6098C6.29195 13.7498 5.14195 14.8798 5.00195 16.3298" stroke="#79747E" stroke-width="1.5" stroke-linecap="round" stroke-linejoin="round"/>
</svg>
