<svg width="14" height="16" viewBox="0 0 14 16" fill="none" xmlns="http://www.w3.org/2000/svg">
<path d="M12.7933 2.68018V4.16016C12.7933 4.70016 12.4533 5.3735 12.12 5.7135L10.9467 6.74683C10.7267 6.69349 10.4933 6.66683 10.2533 6.66683C8.50667 6.66683 7.08667 8.08683 7.08667 9.8335C7.08667 10.4268 7.25333 10.9868 7.54667 11.4668C7.79333 11.8802 8.13333 12.2335 8.54667 12.4868V12.7135C8.54667 13.1202 8.28 13.6601 7.94 13.8601L7 14.4668C6.12667 15.0068 4.91333 14.4002 4.91333 13.3202V9.7535C4.91333 9.28017 4.64 8.6735 4.37333 8.34017L1.81333 5.64681C1.48 5.30681 1.20667 4.70017 1.20667 4.30017V2.74683C1.20667 1.94016 1.81333 1.3335 2.55333 1.3335H11.4467C12.1867 1.3335 12.7933 1.94018 12.7933 2.68018Z" stroke="#292D32" stroke-miterlimit="10" stroke-linecap="round" stroke-linejoin="round"/>
</svg>
