<svg width="304" height="437" viewBox="0 0 304 437" fill="none" xmlns="http://www.w3.org/2000/svg">
<g clip-path="url(#clip0_312_1182)">
<path d="M82.9966 126.157C82.9966 126.157 90.0673 131.034 93.2865 110.751" stroke="#94543D" stroke-opacity="0.15" stroke-width="2" stroke-linecap="round" stroke-linejoin="round"/>
<path d="M159.489 210.883C159.489 210.883 156.34 210.024 155.383 214.022C154.426 218.021 153.375 226.104 156.377 229.851C160.134 234.536 164.417 229.708 164.417 229.708" stroke="#94543D" stroke-opacity="0.15" stroke-width="2" stroke-linecap="round" stroke-linejoin="round"/>
<path d="M95.512 199.2C95.5613 195.415 97.5651 188.043 98.2918 186.358C99.3061 184.057 101.642 179.459 101.663 179.422C103.971 175.025 112.068 161.439 112.803 159.796C113.747 157.712 116.149 155.542 119.192 152.81C123.216 149.189 128.184 144.669 130.521 139.356C133.806 131.881 128.057 124.727 126.595 124.727C124.62 124.727 116.609 130.439 112.076 135.078C104.685 142.627 94.4691 155.374 93.6602 156.397" stroke="#94543D" stroke-opacity="0.15" stroke-width="2" stroke-linecap="round" stroke-linejoin="round"/>
<path d="M182.558 408.567C177.22 405.522 150.809 386.01 146.621 355.383C145.993 345.768 157.617 326.815 167.25 306.754C173.82 293.082 176.012 266.051 171.122 250.213C169.508 244.994 167.685 239.081 165.907 231.746C164.113 224.308 163.567 216.484 163.39 213.911C163.356 213.351 163.157 212.814 162.819 212.367C162.48 211.92 162.018 211.582 161.489 211.396C159.522 210.718 154.763 209.49 149.347 214.988C141.168 223.305 143.086 238.629 145.077 247.92C145.488 249.769 149.429 267.908 144.535 275.42C141.328 280.351 138.606 281.243 134.988 282.044C125.515 284.14 118.289 270.579 113.678 260.187C111.674 255.666 108.869 248.98 106.574 242.87C104.726 237.963 103.199 233.418 102.657 230.698C101.351 224.037 92.6173 188.816 92.6337 183.19C92.6337 181.172 91.5579 156.105 96.6002 144.127C101.774 131.836 102.102 121.525 97.5857 113.463C95.0358 108.914 89.4885 109.678 87.6366 110.081C85.2756 115.953 67.763 159.393 65.6114 171.421C60.3145 201.053 70.9945 249.876 70.9945 249.876C71.1218 250.641 70.7974 251.019 69.6108 252.482" stroke="#94543D" stroke-opacity="0.15" stroke-width="2" stroke-linecap="round" stroke-linejoin="round"/>
<path d="M65.5004 218.045C65.135 219.023 62.8684 223.729 62.429 224.83C59.8134 231.454 56.2534 240.519 55.5308 253.546C57.5428 268.179 60.7784 281.9 63.9031 295.128C69.3478 318.178 73.109 348.373 77.7612 364.165C85.5834 390.74 97.9263 416.046 108.668 432.672" stroke="#94543D" stroke-opacity="0.15" stroke-width="2" stroke-linecap="round" stroke-linejoin="round"/>
<path d="M106.804 241.974C109.14 235.329 115.086 218.099 117.27 214.614C118.243 213.081 119.935 211.585 121.898 209.847C126.057 206.182 131.231 201.629 131.128 194.971C131.083 192.136 130.135 190.32 129.342 189.292C129.258 189.179 129.151 189.084 129.029 189.014C128.907 188.943 128.772 188.898 128.631 188.881C128.491 188.864 128.349 188.876 128.214 188.915C128.078 188.955 127.952 189.022 127.843 189.112L116.277 196.463" stroke="#94543D" stroke-opacity="0.15" stroke-width="2" stroke-linecap="round" stroke-linejoin="round"/>
<path d="M102.332 229.083C103.4 223.951 106.849 212.769 107.633 210.698C108.262 209.001 110.175 206.038 112.585 202.278C115.082 198.399 118.19 193.57 120.486 189.128C122.83 184.608 127.055 181.218 131.527 177.622C135.879 174.129 140.388 170.525 143.48 165.577C147.672 158.875 146.202 152.51 143.673 149.103C143.501 148.826 143.275 148.588 143.008 148.401C142.741 148.215 142.439 148.084 142.121 148.018C140.827 147.837 139.197 149.078 138.228 149.818C138.019 149.974 137.817 150.122 137.674 150.229C136.963 150.73 136.093 151.421 134.882 152.374C132.299 154.429 128.394 157.494 121.656 162.278C117.496 165.228 100.46 182.878 99.2036 184.337" stroke="#94543D" stroke-opacity="0.15" stroke-width="2" stroke-linecap="round" stroke-linejoin="round"/>
<path d="M231.519 365.032C231.519 365.032 231.929 333.411 206.521 323.117C206.537 323.125 203.692 337.812 231.519 365.032Z" fill="#94543D" fill-opacity="0.15"/>
<path d="M51.5601 433.362C51.5601 433.362 81.5552 419.958 106.381 430.995C106.381 430.995 76.1187 451.3 51.5601 433.362Z" fill="#94543D" fill-opacity="0.15"/>
<path d="M72.3867 436.535C72.3867 436.535 134.414 409.614 170.067 488.641C170.067 488.641 158.541 456.666 221.484 379.107C268.203 321.543 230.764 264.23 213.226 234.557" stroke="#94543D" stroke-opacity="0.15" stroke-width="2" stroke-linecap="round" stroke-linejoin="round"/>
<path d="M228.673 262.287C228.673 262.287 191.004 241.374 181.786 204.518C181.786 204.518 215.69 215.214 228.673 262.287Z" fill="#94543D" fill-opacity="0.15"/>
<path d="M235.28 282.661C235.28 282.661 223.574 268.122 248.97 230.143C248.966 230.143 265.788 261.382 235.28 282.661Z" fill="#94543D" fill-opacity="0.15"/>
<path d="M194.182 277.734C194.182 277.734 218.704 279.287 240.351 303.988C240.351 303.988 224.875 319.332 194.182 277.734Z" fill="#94543D" fill-opacity="0.15"/>
<path d="M242.084 333.489C242.084 333.489 239.969 305.681 280.139 293.082C280.139 293.082 278.915 314.262 242.084 333.489Z" fill="#94543D" fill-opacity="0.15"/>
<path d="M146.407 452.759C146.407 452.759 125.133 434.743 144.375 397.282C144.375 397.27 158.586 413.013 146.407 452.759Z" fill="#94543D" fill-opacity="0.15"/>
<path d="M216.63 386.688C216.63 386.688 251.511 361.211 286.434 368.583C286.45 368.562 253.121 402.978 216.63 386.688Z" fill="#94543D" fill-opacity="0.15"/>
<path d="M196.608 413.399C196.608 413.399 206.915 393.263 187.049 370.892C187.049 370.892 172.161 389.729 196.608 413.399Z" fill="#94543D" fill-opacity="0.15"/>
<path d="M177.942 445.189C177.942 445.189 210.409 456.112 235.383 437.176C235.383 437.176 217.024 423.504 177.942 445.189Z" fill="#94543D" fill-opacity="0.15"/>
<path d="M41.9067 396.21C41.9067 396.21 66.4284 397.763 88.0758 422.464C88.0758 422.464 72.5999 437.809 41.9067 396.21Z" fill="#94543D" fill-opacity="0.15"/>
<path d="M148.621 52.4063L158.808 58.0484L164.343 68.2971L169.981 58.106L180.221 52.5666L170.038 46.9245L164.499 36.6758L158.865 46.8669L148.621 52.4063Z" fill="#94543D" fill-opacity="0.15"/>
<path d="M209.046 177.782L219.233 183.424L224.768 193.673L230.406 183.482L240.647 177.938L230.459 172.3L224.924 162.052L219.287 172.243L209.046 177.782Z" fill="#94543D" fill-opacity="0.15"/>
<path d="M15.5703 212.576L25.7535 218.218L31.2885 228.467L36.9262 218.271L47.1668 212.732L36.9837 207.09L31.4445 196.841L25.811 207.037L15.5703 212.576Z" fill="#94543D" fill-opacity="0.15"/>
<path d="M197.299 103C167.866 118.846 133.198 108.367 119.865 79.5771C111.596 61.7221 113.493 41.0233 123.15 24.1011C102.353 42.2027 94.5267 72.1022 105.905 96.635C119.233 125.4 153.901 135.887 183.338 120.058C194.156 114.221 203.119 105.462 209.206 94.7776C205.554 97.9514 201.56 100.709 197.299 103Z" fill="#94543D" fill-opacity="0.15"/>
<path d="M1.18652 396.21V152.115C1.18652 68.7614 68.7074 1.1875 152 1.1875C235.28 1.1875 302.813 68.7614 302.813 152.119V397.27" stroke="#94543D" stroke-opacity="0.15" stroke-width="2" stroke-miterlimit="10"/>
</g>
<defs>
<clipPath id="clip0_312_1182">
<rect width="304" height="437" fill="white"/>
</clipPath>
</defs>
</svg>
