<svg width="16" height="16" viewBox="0 0 16 16" fill="none" xmlns="http://www.w3.org/2000/svg">
<path d="M13.3133 6.66663H2.64661V12C2.64661 14 3.31327 14.6666 5.31327 14.6666H10.6466C12.6466 14.6666 13.3133 14 13.3133 12V6.66663Z" stroke="#B23A48" stroke-miterlimit="10" stroke-linecap="round" stroke-linejoin="round"/>
<path d="M14.3333 4.66671V5.33337C14.3333 6.06671 13.98 6.66671 13 6.66671H2.99996C1.97996 6.66671 1.66663 6.06671 1.66663 5.33337V4.66671C1.66663 3.93337 1.97996 3.33337 2.99996 3.33337H13C13.98 3.33337 14.3333 3.93337 14.3333 4.66671Z" stroke="#B23A48" stroke-miterlimit="10" stroke-linecap="round" stroke-linejoin="round"/>
<path d="M7.76006 3.33329H4.08006C3.85339 3.08663 3.86006 2.70663 4.10006 2.46663L5.04673 1.51996C5.29339 1.27329 5.70006 1.27329 5.94673 1.51996L7.76006 3.33329Z" stroke="#B23A48" stroke-miterlimit="10" stroke-linecap="round" stroke-linejoin="round"/>
<path d="M11.9133 3.33329H8.23328L10.0466 1.51996C10.2933 1.27329 10.6999 1.27329 10.9466 1.51996L11.8933 2.46663C12.1333 2.70663 12.1399 3.08663 11.9133 3.33329Z" stroke="#B23A48" stroke-miterlimit="10" stroke-linecap="round" stroke-linejoin="round"/>
<path d="M5.95996 6.66663V10.0933C5.95996 10.6266 6.54663 10.94 6.99329 10.6533L7.61996 10.24C7.84663 10.0933 8.13329 10.0933 8.35329 10.24L8.94663 10.64C9.38663 10.9333 9.97996 10.62 9.97996 10.0866V6.66663H5.95996Z" stroke="#B23A48" stroke-miterlimit="10" stroke-linecap="round" stroke-linejoin="round"/>
</svg>
