<svg width="25" height="24" viewBox="0 0 25 24" fill="none" xmlns="http://www.w3.org/2000/svg">
<path d="M20.2906 14.9303C18.2306 16.9803 15.2806 17.6103 12.6906 16.8003L7.98063 21.5003C7.64063 21.8503 6.97063 22.0603 6.49063 21.9903L4.31063 21.6903C3.59063 21.5903 2.92063 20.9103 2.81063 20.1903L2.51063 18.0103C2.44063 17.5303 2.67063 16.8603 3.00063 16.5203L7.70063 11.8203C6.90063 9.22031 7.52063 6.27031 9.58063 4.22031C12.5306 1.27031 17.3206 1.27031 20.2806 4.22031C23.2406 7.17031 23.2406 11.9803 20.2906 14.9303Z" stroke="#333333" stroke-width="1.5" stroke-miterlimit="10" stroke-linecap="round" stroke-linejoin="round"/>
<path d="M7.39062 17.4902L9.69062 19.7902" stroke="#333333" stroke-width="1.5" stroke-miterlimit="10" stroke-linecap="round" stroke-linejoin="round"/>
<path d="M15 11C15.8284 11 16.5 10.3284 16.5 9.5C16.5 8.67157 15.8284 8 15 8C14.1716 8 13.5 8.67157 13.5 9.5C13.5 10.3284 14.1716 11 15 11Z" stroke="#333333" stroke-width="1.5" stroke-linecap="round" stroke-linejoin="round"/>
</svg>
