<svg width="16" height="16" viewBox="0 0 16 16" fill="none" xmlns="http://www.w3.org/2000/svg">
<path d="M12.6667 6.00004C12.6667 6.96671 12.38 7.85338 11.8867 8.59338C11.1667 9.66005 10.0267 10.4134 8.70004 10.6067C8.47337 10.6467 8.24004 10.6667 8.00004 10.6667C7.76004 10.6667 7.52671 10.6467 7.30004 10.6067C5.97337 10.4134 4.83337 9.66005 4.11337 8.59338C3.62004 7.85338 3.33337 6.96671 3.33337 6.00004C3.33337 3.42004 5.42004 1.33337 8.00004 1.33337C10.58 1.33337 12.6667 3.42004 12.6667 6.00004Z" stroke="#2D574C" stroke-linecap="round" stroke-linejoin="round"/>
<path d="M14.1666 12.3133L13.0666 12.5733C12.82 12.6333 12.6266 12.82 12.5733 13.0667L12.34 14.0467C12.2133 14.58 11.5333 14.74 11.18 14.32L7.99997 10.6666L4.81997 14.3266C4.46664 14.7466 3.78664 14.5866 3.65997 14.0533L3.42664 13.0733C3.36664 12.8266 3.1733 12.6333 2.9333 12.58L1.8333 12.32C1.32664 12.2 1.14664 11.5666 1.5133 11.2L4.1133 8.59998C4.8333 9.66664 5.9733 10.42 7.29997 10.6133C7.52664 10.6533 7.75997 10.6733 7.99997 10.6733C8.23997 10.6733 8.47331 10.6533 8.69997 10.6133C10.0266 10.42 11.1666 9.66664 11.8866 8.59998L14.4866 11.2C14.8533 11.56 14.6733 12.1933 14.1666 12.3133Z" stroke="#2D574C" stroke-linecap="round" stroke-linejoin="round"/>
<path d="M8.38669 3.98663L8.78002 4.77329C8.83336 4.87995 8.97336 4.98662 9.10002 5.00662L9.81336 5.12662C10.2667 5.19995 10.3734 5.53329 10.0467 5.85996L9.49336 6.41328C9.40002 6.50661 9.34669 6.68663 9.38002 6.81996L9.54002 7.50662C9.66669 8.04662 9.38002 8.25995 8.90002 7.97328L8.23336 7.57995C8.11336 7.50661 7.91336 7.50661 7.79336 7.57995L7.12669 7.97328C6.64669 8.25328 6.36002 8.04662 6.48669 7.50662L6.64669 6.81996C6.67336 6.69329 6.62669 6.50661 6.53336 6.41328L5.98002 5.85996C5.65336 5.53329 5.76002 5.20662 6.21336 5.12662L6.92669 5.00662C7.04669 4.98662 7.18669 4.87995 7.24002 4.77329L7.63336 3.98663C7.82669 3.55996 8.17336 3.55996 8.38669 3.98663Z" stroke="#2D574C" stroke-linecap="round" stroke-linejoin="round"/>
</svg>
