<svg width="37" height="56" viewBox="0 0 37 56" fill="none" xmlns="http://www.w3.org/2000/svg">
<path d="M24.3063 39.5828C24.9318 40.1876 25.4773 40.7824 26.0928 41.2905C27.2872 42.2887 28.7644 42.8907 30.3185 43.0124C30.6146 43.0394 30.9073 43.0952 31.1925 43.1789C32.0779 43.4351 32.4778 43.9431 32.4778 44.8681C32.4778 45.7077 32.4178 46.5473 32.4049 47.3884C32.3921 48.1867 32.4049 48.2066 31.5923 48.2536C28.4677 48.4329 25.7044 47.5278 23.4294 45.3704C22.2441 44.2448 21.203 42.9683 20.0563 41.7999C18.3926 40.1065 16.6931 38.45 15.0066 36.7779C14.721 36.4933 14.4353 36.2087 14.1312 35.9411C14.0398 35.8586 13.8455 35.7519 13.7927 35.7903C13.6108 35.9187 13.4536 36.0788 13.3286 36.2627C13.2729 36.3439 13.3172 36.4933 13.3172 36.6128C13.3172 40.2881 13.3172 43.964 13.3172 47.6402C13.3172 48.1497 13.3172 48.1497 12.8073 48.1497C11.4392 48.1497 10.0711 48.1426 8.70159 48.1568C8.39455 48.1568 8.28888 48.0714 8.28888 47.7541C8.29744 42.1092 8.29744 36.4643 8.28888 30.8195C8.28888 30.4552 8.39313 30.3413 8.76157 30.3114C12.2589 30.0268 15.4236 30.9931 18.3412 32.8445C18.9881 33.2543 19.5522 33.7937 20.152 34.2676C20.3648 34.4384 20.5561 34.6376 20.7832 34.7856C21.2559 35.0915 21.7714 35.1172 22.2284 34.7856C23.7336 33.714 24.7875 32.345 24.729 30.4082C24.6604 28.2024 23.1067 25.7718 20.3019 25.4644C19.1074 25.3573 17.9081 25.3127 16.7089 25.3307C14.5439 25.3235 12.3803 25.3477 10.2168 25.3862C8.76871 25.4103 7.69622 24.8496 6.91506 23.6087C6.3224 22.6681 5.59408 21.8128 4.92717 20.9191C4.8372 20.7981 4.75294 20.6729 4.60156 20.4623C5.14281 20.3826 5.60122 20.2574 6.06392 20.2588C10.4781 20.2659 14.8923 20.2702 19.3065 20.3271C22.1084 20.3641 24.6533 21.181 26.7397 23.1249C28.3778 24.6408 29.4499 26.6666 29.7801 28.8698C30.4385 32.9726 28.7519 36.1105 25.6201 38.6179C25.2317 38.9296 24.8189 39.2085 24.3063 39.5842" fill="#7C6B4F"/>
<path d="M11.3033 4.55385L16.2116 0L21.0928 4.62073C20.6844 4.9452 20.3016 5.2355 19.9361 5.54716C19.5913 5.81947 19.2681 6.11777 18.9692 6.43943C18.7063 6.73331 18.5209 7.08775 18.4297 7.47081C18.3384 7.85388 18.3442 8.25354 18.4466 8.63381C18.568 9.18763 18.8283 9.70174 19.2031 10.1282C19.578 10.5546 20.0551 10.8795 20.59 11.0725C21.1249 11.2655 21.7001 11.3202 22.262 11.2317C22.824 11.1432 23.3542 10.9143 23.8033 10.5664C24.0827 10.3706 24.3091 10.1089 24.4624 9.80475C24.6156 9.50057 24.6909 9.16332 24.6816 8.82308C24.6816 8.13289 24.7444 7.44554 25.3214 6.97308C25.6362 6.72093 25.9916 6.52366 26.3724 6.38962C28.3717 5.67808 30.3711 4.99216 32.3704 4.29912C32.4401 4.28681 32.5109 4.28062 32.5817 4.28062C32.4775 4.49835 32.3961 4.67197 32.3075 4.84985C31.1151 7.1837 29.9141 9.51328 28.7373 11.8514C28.3475 12.6227 28.0404 13.4381 27.6263 14.1966C26.8665 15.5884 25.607 16.2046 24.0561 16.2274C22.7836 16.2459 21.5112 16.1605 20.2388 16.1548C17.1813 16.142 14.1237 16.1548 11.0648 16.1548C9.7581 16.1548 8.44854 16.1889 7.14185 16.1548C6.23073 16.1306 5.57952 15.6268 5.17109 14.8313C4.63413 13.7868 4.12859 12.7266 3.6002 11.682C2.61339 9.77655 1.61802 7.88812 0.654062 5.97693C0.399863 5.4817 0.232778 4.93808 0 4.34608C0.107796 4.35642 0.214704 4.37449 0.319891 4.40016C2.40918 5.15581 4.49561 5.92143 6.59061 6.6657C6.76627 6.72101 6.92402 6.82184 7.04773 6.95786C7.17144 7.09389 7.25665 7.26023 7.29465 7.43985C7.43746 7.97778 7.53457 8.53135 7.72308 9.05362C8.43998 11.1 10.6321 11.8799 12.5114 10.7642C14.2251 9.74524 14.5108 7.34877 13.0498 6.00681C12.5728 5.56566 12.033 5.19139 11.5246 4.78297C11.4463 4.71114 11.3723 4.63463 11.3033 4.55385Z" fill="#C89923"/>
</svg>
