<svg width="32" height="32" viewBox="0 0 32 32" fill="none" xmlns="http://www.w3.org/2000/svg">
<path d="M15.999 18.6666H14.6657C13.199 18.6666 11.999 17.4666 11.999 16V2.66663H23.999C25.999 2.66663 27.7457 3.77328 28.6523 5.39994" stroke="#2D574C" stroke-width="1.5" stroke-linecap="round" stroke-linejoin="round"/>
<path d="M29.334 22.6666C29.334 24.88 27.5473 26.6666 25.334 26.6666H24.0007C24.0007 25.2 22.8007 24 21.334 24C19.8673 24 18.6673 25.2 18.6673 26.6666H13.334C13.334 25.2 12.134 24 10.6673 24C9.20065 24 8.00065 25.2 8.00065 26.6666H6.66732C4.45398 26.6666 2.66732 24.88 2.66732 22.6666V18.6666H6.66732C7.40065 18.6666 8.00065 18.0666 8.00065 17.3333V13.3333C8.00065 12.6 7.40065 12 6.66732 12H4.94735L7.22729 8.01331C7.70729 7.18664 8.58728 6.66663 9.54728 6.66663H12.0007V16C12.0007 17.4666 13.2007 18.6666 14.6673 18.6666H16.0007" stroke="#2D574C" stroke-width="1.5" stroke-linecap="round" stroke-linejoin="round"/>
<path d="M21.3333 29.3333C19.8606 29.3333 18.6667 28.1394 18.6667 26.6667C18.6667 25.1939 19.8606 24 21.3333 24C22.8061 24 24 25.1939 24 26.6667C24 28.1394 22.8061 29.3333 21.3333 29.3333Z" stroke="#2D574C" stroke-width="1.5" stroke-linecap="round" stroke-linejoin="round"/>
<path d="M10.6673 29.3333C9.19456 29.3333 8.00065 28.1394 8.00065 26.6667C8.00065 25.1939 9.19456 24 10.6673 24C12.1401 24 13.334 25.1939 13.334 26.6667C13.334 28.1394 12.1401 29.3333 10.6673 29.3333Z" stroke="#2D574C" stroke-width="1.5" stroke-linecap="round" stroke-linejoin="round"/>
<path d="M2.66667 16V18.6667H6.66667C7.4 18.6667 8 18.0667 8 17.3333V13.3333C8 12.6 7.4 12 6.66667 12H4.9467L2.66667 16Z" stroke="#2D574C" stroke-width="1.5" stroke-linecap="round" stroke-linejoin="round"/>
<path d="M29.334 10.6666H21.334" stroke="#292D32" stroke-width="1.5" stroke-linecap="round" stroke-linejoin="round"/>
<path d="M29.334 14.6666H24.0007" stroke="#292D32" stroke-width="1.5" stroke-linecap="round" stroke-linejoin="round"/>
<path d="M29.334 18.6666H26.6673" stroke="#292D32" stroke-width="1.5" stroke-linecap="round" stroke-linejoin="round"/>
</svg>
