<svg width="51" height="75" viewBox="0 0 51 75" fill="none" xmlns="http://www.w3.org/2000/svg">
<path d="M37.6294 61.4949C38.5977 62.4345 39.4423 63.3586 40.3952 64.1479C42.2442 65.6988 44.5312 66.6339 46.9371 66.823C47.3954 66.865 47.8486 66.9517 48.2901 67.0817C49.6608 67.4797 50.2799 68.2689 50.2799 69.706C50.2799 71.0104 50.187 72.3148 50.1671 73.6214C50.1472 74.8617 50.1671 74.8926 48.9092 74.9656C44.0718 75.2442 39.7938 73.8381 36.2719 70.4864C34.4369 68.7376 32.8252 66.7545 31.0499 64.9394C28.4742 62.3085 25.8433 59.735 23.2323 57.1373C22.7901 56.6951 22.348 56.2529 21.877 55.8373C21.7356 55.7091 21.4349 55.5433 21.3531 55.6029C21.0714 55.8025 20.828 56.0511 20.6345 56.337C20.5483 56.463 20.6169 56.6951 20.6169 56.8808C20.6169 62.5907 20.6169 68.3014 20.6169 74.0127C20.6169 74.8042 20.6169 74.8042 19.8276 74.8042C17.7096 74.8042 15.5916 74.7932 13.4714 74.8153C12.996 74.8153 12.8324 74.6826 12.8324 74.1896C12.8457 65.4199 12.8457 56.6502 12.8324 47.8804C12.8324 47.3145 12.9938 47.1376 13.5642 47.0912C18.9786 46.649 23.8779 48.1502 28.3946 51.0265C29.3962 51.6632 30.2694 52.5011 31.198 53.2373C31.5274 53.5026 31.8237 53.8122 32.1752 54.0421C32.907 54.5174 33.7051 54.5572 34.4126 54.0421C36.7428 52.3773 38.3744 50.2505 38.2838 47.2415C38.1777 43.8147 35.7723 40.0385 31.4301 39.561C29.5809 39.3946 27.7242 39.3253 25.8676 39.3532C22.516 39.3421 19.1665 39.3797 15.8171 39.4394C13.5753 39.477 11.9149 38.6059 10.7056 36.678C9.7881 35.2167 8.66057 33.8879 7.6281 32.4995C7.48881 32.3116 7.35837 32.1171 7.12402 31.7898C7.96194 31.666 8.67162 31.4715 9.38794 31.4737C16.2217 31.4848 23.0554 31.4914 29.8892 31.5798C34.2269 31.6373 38.1666 32.9063 41.3967 35.9264C43.9326 38.2814 45.5924 41.4287 46.1036 44.8516C47.1228 51.2255 44.5118 56.1004 39.6634 59.9959C39.062 60.4801 38.4231 60.9134 37.6294 61.4971" fill="#7C6B4F"/>
<path d="M17.4989 7.07473L25.0976 0L32.6543 7.17864C32.022 7.68272 31.4295 8.13373 30.8635 8.61791C30.3298 9.04096 29.8294 9.50439 29.3668 10.0041C28.9597 10.4607 28.6727 11.0113 28.5314 11.6064C28.3902 12.2016 28.3992 12.8225 28.5576 13.4132C28.7456 14.2736 29.1486 15.0724 29.7289 15.7349C30.3091 16.3974 31.0478 16.9021 31.8759 17.2019C32.704 17.5017 33.5946 17.5868 34.4645 17.4493C35.3343 17.3118 36.1552 16.9562 36.8505 16.4156C37.283 16.1114 37.6336 15.7049 37.8708 15.2324C38.1081 14.7598 38.2247 14.2359 38.2102 13.7073C38.2102 12.635 38.3074 11.5672 39.2006 10.8332C39.688 10.4414 40.2382 10.135 40.8278 9.92673C43.923 8.82131 47.0182 7.75567 50.1134 6.67899C50.2214 6.65986 50.3309 6.65025 50.4406 6.65025C50.2792 6.98851 50.1532 7.25823 50.0161 7.53459C48.1701 11.1604 46.3107 14.7796 44.489 18.412C43.8854 19.6103 43.4101 20.8771 42.769 22.0555C41.5928 24.2177 39.6428 25.175 37.2418 25.2104C35.2719 25.2391 33.3021 25.1064 31.3322 25.0976C26.5988 25.0777 21.8653 25.0976 17.1297 25.0976C15.1068 25.0976 13.0794 25.1507 11.0565 25.0976C9.64595 25.06 8.6378 24.2774 8.0055 23.0415C7.17422 21.4187 6.39158 19.7717 5.57356 18.1489C4.04586 15.1886 2.5049 12.2548 1.01257 9.28558C0.619039 8.51621 0.360369 7.67166 0 6.75195C0.166882 6.76801 0.332389 6.79608 0.495231 6.83596C3.72971 8.00992 6.95977 9.19936 10.2031 10.3556C10.475 10.4416 10.7193 10.5982 10.9108 10.8095C11.1023 11.0209 11.2342 11.2793 11.293 11.5583C11.5141 12.394 11.6645 13.2541 11.9563 14.0654C13.0661 17.2447 16.4598 18.4562 19.3693 16.7229C22.0223 15.1399 22.4645 11.4168 20.2028 9.33201C19.4643 8.64665 18.6286 8.06519 17.8416 7.43068C17.7202 7.31909 17.6058 7.20022 17.4989 7.07473Z" fill="#C89923"/>
</svg>
