<svg width="51" height="26" viewBox="0 0 51 26" fill="none" xmlns="http://www.w3.org/2000/svg">
<path d="M17.4989 7.07473L25.0976 0L32.6543 7.17864C32.022 7.68272 31.4295 8.13373 30.8635 8.61791C30.3298 9.04096 29.8294 9.50439 29.3668 10.0041C28.9597 10.4607 28.6727 11.0113 28.5314 11.6064C28.3902 12.2016 28.3992 12.8225 28.5576 13.4132C28.7456 14.2736 29.1486 15.0724 29.7289 15.7349C30.3091 16.3974 31.0478 16.9021 31.8759 17.2019C32.704 17.5017 33.5946 17.5868 34.4645 17.4493C35.3343 17.3118 36.1552 16.9562 36.8505 16.4156C37.283 16.1114 37.6336 15.7049 37.8708 15.2324C38.1081 14.7598 38.2247 14.2359 38.2102 13.7073C38.2102 12.635 38.3074 11.5672 39.2006 10.8332C39.688 10.4414 40.2382 10.135 40.8278 9.92673C43.923 8.82131 47.0182 7.75567 50.1134 6.67899C50.2214 6.65986 50.3309 6.65025 50.4406 6.65025C50.2792 6.98851 50.1532 7.25823 50.0161 7.53459C48.1701 11.1604 46.3107 14.7796 44.489 18.412C43.8854 19.6103 43.4101 20.8771 42.769 22.0555C41.5928 24.2177 39.6428 25.175 37.2418 25.2104C35.2719 25.2391 33.3021 25.1064 31.3322 25.0976C26.5988 25.0777 21.8653 25.0976 17.1297 25.0976C15.1068 25.0976 13.0794 25.1507 11.0565 25.0976C9.64595 25.06 8.6378 24.2774 8.0055 23.0415C7.17422 21.4187 6.39158 19.7717 5.57356 18.1489C4.04586 15.1886 2.5049 12.2548 1.01257 9.28558C0.619039 8.51621 0.360369 7.67166 0 6.75195C0.166882 6.76801 0.332389 6.79608 0.495231 6.83596C3.72971 8.00992 6.95977 9.19936 10.2031 10.3556C10.475 10.4416 10.7193 10.5982 10.9108 10.8095C11.1023 11.0209 11.2342 11.2793 11.293 11.5583C11.5141 12.394 11.6645 13.2541 11.9563 14.0654C13.0661 17.2447 16.4598 18.4562 19.3693 16.7229C22.0223 15.1399 22.4645 11.4168 20.2028 9.33201C19.4643 8.64665 18.6286 8.06519 17.8416 7.43068C17.7202 7.31909 17.6058 7.20022 17.4989 7.07473Z" fill="#C89923"/>
</svg>
