<svg width="16" height="16" viewBox="0 0 16 16" fill="none" xmlns="http://www.w3.org/2000/svg">
<path d="M10.4244 12.8368L10.5732 12.4408L10.2073 12.2284L6.78174 10.2405L10.2294 12.1827L10.5479 12.3622L10.8155 12.113C10.9415 11.9957 11.0986 11.8936 11.2935 11.8103C11.463 11.7378 11.6707 11.6954 11.9263 11.6954C12.3716 11.6954 12.7337 11.8452 13.042 12.1528C13.3503 12.4603 13.5 12.8211 13.5 13.2643C13.5 13.7076 13.3503 14.0684 13.042 14.3759C12.7337 14.6835 12.3716 14.8333 11.9263 14.8333C11.4833 14.8333 11.122 14.6823 10.8131 14.3698C10.5005 14.0534 10.3527 13.6933 10.3527 13.2643C10.3527 13.217 10.358 13.1457 10.373 13.0456C10.386 12.9592 10.4042 12.8906 10.4244 12.8368ZM4.90624 8.77634L4.83211 9.10914L4.76229 9.06862L4.49211 9.3921C4.36938 9.53905 4.20981 9.6631 4.00387 9.76137C3.8019 9.85774 3.60442 9.90228 3.40701 9.90228C2.96172 9.90228 2.59961 9.75247 2.29132 9.44488C1.98306 9.13732 1.83334 8.77657 1.83334 8.33331C1.83334 7.89006 1.98306 7.5293 2.29132 7.22175C2.59961 6.91415 2.96172 6.76435 3.40701 6.76435C3.6156 6.76435 3.81324 6.80511 4.00408 6.88734C4.19314 6.96879 4.36204 7.08679 4.51275 7.246L4.78326 7.53178L4.83098 7.50442L4.90927 7.81691C4.92665 7.88627 4.94378 7.9766 4.95937 8.09068C4.97513 8.20604 4.98068 8.28463 4.98068 8.33331C4.98068 8.37827 4.97582 8.43329 4.96336 8.49959C4.94724 8.58541 4.92823 8.67763 4.90624 8.77634ZM10.2339 4.46413L7.77467 5.81614L10.2051 4.42221L10.5916 4.20054L10.4158 3.79115C10.4012 3.75726 10.3848 3.70422 10.3724 3.62585C10.3585 3.53752 10.3527 3.46346 10.3527 3.40228C10.3527 2.95903 10.5024 2.59827 10.8106 2.29072C11.1189 1.98312 11.4811 1.83331 11.9263 1.83331C12.3716 1.83331 12.7337 1.98312 13.042 2.29072C13.3503 2.59827 13.5 2.95903 13.5 3.40228C13.5 3.84553 13.3503 4.20629 13.042 4.51384C12.7337 4.82144 12.3716 4.97124 11.9263 4.97124C11.7065 4.97124 11.4952 4.9349 11.29 4.86209C11.1061 4.79687 10.9629 4.69948 10.8493 4.57105L10.5844 4.27145L10.2339 4.46413ZM4.42547 7.31557L4.07232 7.66952L4.42547 7.31557C4.14804 7.03876 3.79697 6.90228 3.40701 6.90228C3.01706 6.90228 2.66599 7.03876 2.38856 7.31557L2.74171 7.66952L2.38856 7.31557C2.11106 7.59243 1.97386 7.94325 1.97386 8.33331C1.97386 8.72338 2.11106 9.07419 2.38856 9.35106C2.66599 9.62786 3.01706 9.76435 3.40701 9.76435C3.79696 9.76435 4.14803 9.62786 4.42547 9.35106C4.70296 9.07419 4.84016 8.72338 4.84016 8.33331C4.84016 7.94325 4.70296 7.59243 4.42547 7.31557ZM11.9263 4.83331C12.3163 4.83331 12.6674 4.69683 12.9448 4.42003C13.2223 4.14316 13.3595 3.79234 13.3595 3.40228C13.3595 3.01222 13.2223 2.6614 12.9448 2.38453C12.6674 2.10773 12.3163 1.97124 11.9263 1.97124C11.5364 1.97124 11.1853 2.10773 10.9079 2.38453C10.6304 2.6614 10.4932 3.01222 10.4932 3.40228C10.4932 3.79234 10.6304 4.14316 10.9079 4.42003C11.1853 4.69683 11.5364 4.83331 11.9263 4.83331ZM11.9263 14.6954C12.3163 14.6954 12.6674 14.5589 12.9448 14.2821C13.2223 14.0052 13.3595 13.6544 13.3595 13.2643C13.3595 12.8743 13.2223 12.5235 12.9448 12.2466C12.6674 11.9698 12.3163 11.8333 11.9263 11.8333C11.5364 11.8333 11.1853 11.9698 10.9079 12.2466C10.6304 12.5235 10.4932 12.8743 10.4932 13.2643C10.4932 13.6544 10.6304 14.0052 10.9079 14.2821C11.1853 14.5589 11.5364 14.6954 11.9263 14.6954Z" fill="#333333" stroke="#2D574C"/>
</svg>
