<svg width="32" height="32" viewBox="0 0 32 32" fill="none" xmlns="http://www.w3.org/2000/svg">
<path d="M27.9863 14.96V20.9466C27.9863 26.9333 25.5863 29.3333 19.5997 29.3333H12.413C6.42633 29.3333 4.02633 26.9333 4.02633 20.9466V14.96" stroke="#2D574C" stroke-width="1.5" stroke-linecap="round" stroke-linejoin="round"/>
<path d="M16 16C13.56 16 11.76 14.0133 12 11.5733L12.88 2.66663H19.1067L20 11.5733C20.24 14.0133 18.44 16 16 16Z" stroke="#2D574C" stroke-width="1.5" stroke-linecap="round" stroke-linejoin="round"/>
<path d="M7.58693 16C4.89359 16 2.92026 13.8133 3.18693 11.1333L3.56026 7.46663C4.04026 3.99996 5.37359 2.66663 8.86693 2.66663H12.9336L12.0003 12.0133C11.7736 14.2133 9.78693 16 7.58693 16Z" stroke="#2D574C" stroke-width="1.5" stroke-linecap="round" stroke-linejoin="round"/>
<path d="M24.4802 16C22.2802 16 20.2935 14.2133 20.0802 12.0133L19.7868 9.06663L19.1468 2.66663H23.2135C26.7068 2.66663 28.0402 3.99996 28.5202 7.46663L28.8802 11.1333C29.1468 13.8133 27.1735 16 24.4802 16Z" stroke="#2D574C" stroke-width="1.5" stroke-linecap="round" stroke-linejoin="round"/>
<path d="M16.0007 22.6666C18.2273 22.6666 19.334 23.7733 19.334 26V29.3333H12.6673V26C12.6673 23.7733 13.774 22.6666 16.0007 22.6666Z" stroke="#2D574C" stroke-width="1.5" stroke-linecap="round" stroke-linejoin="round"/>
</svg>
