<svg width="306" height="538" viewBox="0 0 306 538" fill="none" xmlns="http://www.w3.org/2000/svg">
<g opacity="0.25">
<path d="M107.345 300.951C102.925 289.938 76.8285 254.494 75.1814 246.974C73.5343 239.454 65.9403 187.803 65.8038 183.832C65.6341 178.963 74.1634 174.788 81.6622 181.437C89.9142 188.748 90.2453 204.696 92.3724 214.231C94.9879 225.958 106.294 245.579 109.886 251.658C113.478 257.737 121.213 271.322 124.681 269.765C126.999 268.722 122.753 261.115 119.243 253.549C115.734 245.983 111.724 234.715 110.221 228.932C108.719 223.15 105.669 193.845 105.479 190.754C105.288 187.664 96.8171 162.955 105.297 161.435C114.074 159.841 122.471 170.146 125.542 180.242C128.613 190.337 140.08 230.355 146.358 242.48C152.015 253.4 168.706 304.347 184.303 296.323C191.583 292.579 186.997 267.332 185.491 260.105C185.284 259.113 185.036 258.145 184.742 257.181C183.463 253.011 179.561 239.501 180.947 230.22C182.474 219.981 187.155 215.148 193.085 216.089C196.354 216.603 199.822 232.639 201.246 235.22C202.67 237.8 210.272 253.461 212.763 259.498C228.146 296.8 221.454 345.968 216.488 375.111C211.108 406.561 180.736 510.137 180.736 510.137" stroke="#94543D" stroke-width="2" stroke-linecap="round" stroke-linejoin="round"/>
<path d="M114.348 478.237C114.348 478.237 151.974 422.453 144.914 402.822C138.197 384.159 131.489 384.206 104.113 340.273" stroke="#94543D" stroke-width="2" stroke-linecap="round" stroke-linejoin="round"/>
<path d="M100.238 320.068C100.238 320.068 71.919 279.861 70.396 274.273C66.9115 261.499 67.0025 233.552 68.1696 230.341C69.9532 225.439 71.4803 224.433 71.4803 224.433" stroke="#94543D" stroke-width="2" stroke-linecap="round" stroke-linejoin="round"/>
<path d="M104.111 340.273C104.111 340.273 87.4045 327.495 81.4907 319.975C78.6766 316.394 73.6939 300.238 69.1706 288.298C66.7703 281.969 70.735 277.016 72.6386 278.531" stroke="#94543D" stroke-width="2" stroke-linecap="round" stroke-linejoin="round"/>
<path d="M105.135 186.297C105.135 186.297 116.549 189.541 105.764 163.131" stroke="#94543D" stroke-width="2" stroke-linecap="round" stroke-linejoin="round"/>
<path d="M69.4077 202.759C69.4077 202.759 80.838 205.942 69.9374 179.593" stroke="#94543D" stroke-width="2" stroke-linecap="round" stroke-linejoin="round"/>
<path d="M194.578 217.331C194.578 217.331 191.718 217.896 191.267 222.066C190.816 226.236 190.734 234.552 193.92 237.87C197.901 242.04 201.336 236.512 201.336 236.512" stroke="#94543D" stroke-width="2" stroke-linecap="round" stroke-linejoin="round"/>
<path d="M218.593 506.982C110.407 525.102 79.6004 435.083 71.7788 404.745" stroke="#94543D" stroke-width="2" stroke-linecap="round" stroke-linejoin="round"/>
<path d="M79.6281 432.47C79.6281 432.47 88.3188 394.19 71.5251 364.89C71.5251 364.89 58.8698 394.246 79.6281 432.47Z" fill="#94543D"/>
<path d="M88.0625 449.669C88.0625 449.669 85.9685 432.725 49.0869 425.831C49.0869 425.831 58.2577 456.693 88.0625 449.669Z" fill="#94543D"/>
<path d="M108.197 419.163C108.197 419.163 95.3678 436.51 97.9212 466.473C97.9212 466.455 115.754 465.755 108.197 419.163Z" fill="#94543D"/>
<path d="M122.09 485.117C122.09 485.117 106.707 466.242 76.6543 485.15C76.6543 485.15 89.9593 497.632 122.09 485.117Z" fill="#94543D"/>
<path d="M139.268 498.887C139.268 498.887 120.207 479.298 128.331 455.886C128.314 455.886 138.652 463.216 139.268 498.887Z" fill="#94543D"/>
<path d="M160.502 502.534C160.502 502.534 125.739 509.831 110.522 537.779C110.522 537.774 149.738 537.139 160.502 502.534Z" fill="#94543D"/>
<path d="M176.738 507.167C176.738 507.167 158.943 501.403 156.778 474.095C156.778 474.095 176.357 475.981 176.738 507.167Z" fill="#94543D"/>
<path d="M88.0224 148.295C81.5624 147.118 77.2088 146.145 72.5861 144.718C71.3198 139.539 70.4673 134.655 69.4409 127.423C68.3898 134.655 67.5207 139.529 66.2461 144.705C61.6193 146.118 57.2574 147.077 50.7974 148.226C57.2533 149.403 61.6111 150.376 66.2337 151.803C67.4752 156.983 68.3525 161.866 69.3789 169.099C70.43 161.871 71.295 156.992 72.5737 151.817C77.1922 150.403 81.5624 149.444 88.0224 148.295Z" fill="#94543D"/>
<path d="M251.333 217.363C244.873 216.191 240.515 215.218 235.893 213.786C234.631 208.606 233.774 203.727 232.748 196.49C231.701 203.723 230.831 208.602 229.553 213.777C224.926 215.19 220.568 216.145 214.104 217.298C220.564 218.47 224.922 219.443 229.544 220.875C230.807 226.055 231.659 230.934 232.69 238.171C233.737 230.938 234.606 226.06 235.885 220.884C240.511 219.471 244.869 218.512 251.333 217.363Z" fill="#94543D"/>
<path d="M243.556 430.2C239.439 429.52 235.36 428.575 231.34 427.369C230.279 422.864 229.45 418.294 228.857 413.682C228.25 418.292 227.405 422.859 226.328 427.36C222.305 428.547 218.225 429.475 214.107 430.14C218.225 430.819 222.304 431.764 226.324 432.971C227.382 437.475 228.211 442.043 228.807 446.652C229.416 442.043 230.26 437.477 231.336 432.975C235.359 431.792 239.439 430.866 243.556 430.2V430.2Z" fill="#94543D"/>
<path d="M73.3516 119.537C69.2348 118.853 65.1561 117.908 61.135 116.706C60.0748 112.201 59.2458 107.631 58.6519 103.019C58.0448 107.629 57.2006 112.196 56.1233 116.697C52.0991 117.884 48.0175 118.812 43.8984 119.477C48.0152 120.161 52.094 121.106 56.1151 122.308C57.1752 126.813 58.0042 131.383 58.5981 135.994C59.2052 131.384 60.0494 126.818 61.1267 122.317C65.1509 121.13 69.2326 120.202 73.3516 119.537V119.537Z" fill="#94543D"/>
<path d="M63.8162 315.958C59.6994 315.274 55.6207 314.329 51.5996 313.127C50.5399 308.622 49.7108 304.052 49.1165 299.441C48.5086 304.05 47.6657 308.616 46.5921 313.118C42.5677 314.304 38.4861 315.232 34.3672 315.898C38.4785 316.584 42.5517 317.531 46.5672 318.733C47.6272 323.239 48.4562 327.808 49.0503 332.42C49.6614 327.811 50.5056 323.244 51.5789 318.743C55.6067 317.552 59.6926 316.622 63.8162 315.958V315.958Z" fill="#94543D"/>
<path d="M148.311 62.1405C141.855 60.9683 137.497 59.9953 132.875 58.5636C131.612 53.3837 130.756 48.5049 129.73 41.2678C128.678 48.5002 127.813 53.379 126.535 58.5543C121.908 59.9675 117.546 60.9219 111.086 62.0756C117.546 63.2478 121.9 64.2208 126.522 65.6525C127.784 70.8324 128.641 75.7112 129.667 82.9483C130.719 75.7158 131.588 70.837 132.862 65.6617C137.489 64.2579 141.851 63.2895 148.311 62.1405Z" fill="#94543D"/>
<path d="M89 29.0451C79.9817 27.414 73.8943 26.06 67.4369 24.0678C65.6737 16.8597 64.4771 10.0707 63.0434 0C61.575 10.0643 60.3668 16.8533 58.5804 24.0549C52.1173 26.0213 46.0241 27.3495 37 28.9549C46.0241 30.586 52.1057 31.94 58.5631 33.9322C60.3263 41.1403 61.523 47.9293 62.9566 58C64.425 47.9357 65.639 41.1467 67.4196 33.9451C73.8827 31.9916 79.9759 30.6441 89 29.0451Z" fill="#94543D"/>
<path d="M163.035 203.862L169.562 166.518L162.336 163.265L129.009 148.263L158.326 230.823L163.035 203.862Z" fill="#E9B380"/>
<path d="M167.086 94.2489L128.611 141.883L169.743 160.402L167.086 94.2489Z" fill="#E9B380"/>
<path d="M204.126 162.765L202.256 163.029L201.701 163.108L200.203 163.326L199.736 163.391L197.824 163.673L197.389 163.738L195.759 163.979L195.316 164.049L193.346 164.345H193.234L191.339 164.637L190.979 164.693L189.195 164.966L189.021 164.994L187.08 165.295L186.89 165.323L185.144 165.596L184.97 165.624L183.219 165.902L182.905 165.948L181.605 166.157L181.191 166.222L179.95 166.416L174.644 167.273L167.332 209.134L164.046 227.945L204.155 162.742L204.126 162.765Z" fill="#E9B380"/>
<path d="M172.376 97.9785L174.929 161.454L177.288 161.069L177.64 161.014L178.575 160.865L178.989 160.796L180.256 160.592L180.967 160.476L181.733 160.356L182.561 160.221L183.972 159.999L184.733 159.878L185.507 159.758L186.62 159.587L187.034 159.522L189.323 159.165L189.699 159.109L190.829 158.933L191.562 158.822L192.571 158.669L193.552 158.521L195.208 158.271L196.035 158.146L197.078 157.993L197.815 157.886L199.76 157.599L200.48 157.497L201.477 157.353L202.305 157.233L203.331 157.089L204.076 156.983L205.045 156.848L172.376 97.9785Z" fill="#E9B380"/>
<path d="M305 115.159V355.225C305 449.21 236.948 525.399 153 525.399C69.0522 525.394 1 449.205 1 355.225V115.159" stroke="#94543D" stroke-width="2" stroke-miterlimit="10"/>
</g>
</svg>
