<svg width="16" height="16" viewBox="0 0 16 16" fill="none" xmlns="http://www.w3.org/2000/svg">
<path d="M9.27128 1.72161L10.5623 4.3215C10.7383 4.67603 11.2078 5.03056 11.599 5.08965L13.9365 5.48358C15.4329 5.73963 15.785 6.82291 14.7092 7.9062L12.89 9.7478C12.5868 10.0531 12.4108 10.6538 12.5086 11.0871L13.0269 13.362C13.4377 15.1544 12.489 15.8536 10.9144 14.918L8.72358 13.6082C8.32259 13.3719 7.67708 13.3719 7.27609 13.6082L5.07551 14.9082C3.50087 15.8438 2.55218 15.1445 2.96295 13.3522L3.48131 11.0773C3.57911 10.6538 3.40307 10.0531 3.09988 9.73795L1.29051 7.91605C0.214671 6.83276 0.566764 5.73962 2.06316 5.49342L4.40066 5.0995C4.79188 5.03056 5.26134 4.68588 5.43738 4.33135L6.72839 1.73145C7.4228 0.313329 8.57688 0.313329 9.27128 1.72161Z" fill="#E9B380"/>
</svg>
