<svg width="28" height="27" viewBox="0 0 28 27" fill="none" xmlns="http://www.w3.org/2000/svg">
<path fill-rule="evenodd" clip-rule="evenodd" d="M14.3208 0.484375C6.79523 0.484375 0.962891 5.89294 0.962891 13.1975C0.962891 17.0186 2.55939 20.3202 5.15841 22.6012C5.37612 22.7937 5.50781 23.06 5.51857 23.3475L5.59113 25.6786C5.61532 26.4223 6.39745 26.9048 7.09088 26.6068L9.74096 25.4597C9.96673 25.3622 10.2167 25.3437 10.4532 25.407C11.6707 25.7366 12.9689 25.9107 14.3208 25.9107C21.8464 25.9107 27.6788 20.5021 27.6788 13.1975C27.6788 5.89294 21.8464 0.484375 14.3208 0.484375ZM22.341 10.2651L18.4169 16.3725C17.7934 17.3429 16.4549 17.5856 15.5195 16.8973L12.3991 14.6004C12.1115 14.3895 11.7191 14.3921 11.4342 14.6031L7.21989 17.7411C6.65816 18.1604 5.92172 17.4985 6.30069 16.9131L10.2248 10.8057C10.8483 9.8353 12.1868 9.5927 13.1221 10.281L16.2425 12.5778C16.5301 12.7888 16.9225 12.7861 17.2074 12.5752L21.4218 9.43711C21.9835 9.01782 22.7199 9.67972 22.341 10.2651Z" fill="#232323"/>
</svg>
