<svg width="20" height="20" viewBox="0 0 20 20" fill="none" xmlns="http://www.w3.org/2000/svg">
<path d="M17.079 2.928C15.193 1.041 12.685 0.001 10.013 0C4.50695 0 0.0259532 4.479 0.0239532 9.985C0.0229532 11.745 0.482953 13.463 1.35695 14.977L0.00195312 20L5.23495 18.763C6.69395 19.559 8.33595 19.978 10.008 19.979H10.012C15.517 19.979 19.998 15.499 20.001 9.994C20.003 7.325 18.965 4.816 17.079 2.928ZM14.9 13.554C14.692 14.137 13.673 14.699 13.215 14.74C12.757 14.782 12.328 14.947 10.22 14.116C7.68295 13.116 6.08095 10.515 5.95695 10.349C5.83195 10.182 4.93795 8.996 4.93795 7.768C4.93795 6.54 5.58295 5.936 5.81195 5.687C6.04095 5.437 6.31095 5.375 6.47795 5.375C6.64395 5.375 6.81095 5.375 6.95595 5.381C7.13395 5.388 7.33095 5.397 7.51795 5.812C7.73995 6.306 8.22495 7.54 8.28695 7.665C8.34895 7.79 8.39095 7.936 8.30795 8.102C8.22495 8.268 8.18295 8.372 8.05895 8.518C7.93395 8.664 7.79695 8.843 7.68495 8.955C7.55995 9.079 7.42995 9.215 7.57495 9.464C7.72095 9.714 8.22095 10.531 8.96295 11.192C9.91695 12.042 10.72 12.305 10.97 12.431C11.22 12.556 11.365 12.535 11.511 12.368C11.657 12.202 12.135 11.64 12.301 11.39C12.467 11.14 12.634 11.182 12.863 11.265C13.092 11.348 14.319 11.952 14.568 12.077C14.818 12.202 14.984 12.264 15.046 12.368C15.108 12.471 15.108 12.971 14.9 13.554Z" fill="#333333"/>
</svg>
