<svg width="32" height="32" viewBox="0 0 32 32" fill="none" xmlns="http://www.w3.org/2000/svg">
<path d="M25.4358 6.57075C22.9212 4.05475 19.5772 2.66808 16.0145 2.66675C8.67317 2.66675 2.6985 8.63875 2.69584 15.9801C2.6945 18.3267 3.30784 20.6174 4.47317 22.6361L2.6665 29.3334L9.64384 27.6841C11.5892 28.7454 13.7785 29.3041 16.0078 29.3054H16.0132C23.3532 29.3054 29.3278 23.3321 29.3318 15.9921C29.3345 12.4334 27.9505 9.08808 25.4358 6.57075ZM22.5305 20.7387C22.2532 21.5161 20.8945 22.2654 20.2838 22.3201C19.6732 22.3761 19.1012 22.5961 16.2905 21.4881C12.9078 20.1547 10.7718 16.6867 10.6065 16.4654C10.4398 16.2427 9.24784 14.6614 9.24784 13.0241C9.24784 11.3867 10.1078 10.5814 10.4132 10.2494C10.7185 9.91608 11.0785 9.83341 11.3012 9.83341C11.5225 9.83341 11.7452 9.83341 11.9385 9.84141C12.1758 9.85075 12.4385 9.86275 12.6878 10.4161C12.9838 11.0747 13.6305 12.7201 13.7132 12.8867C13.7958 13.0534 13.8518 13.2481 13.7412 13.4694C13.6305 13.6907 13.5745 13.8294 13.4092 14.0241C13.2425 14.2187 13.0598 14.4574 12.9105 14.6067C12.7438 14.7721 12.5705 14.9534 12.7638 15.2854C12.9585 15.6187 13.6252 16.7081 14.6145 17.5894C15.8865 18.7227 16.9572 19.0734 17.2905 19.2414C17.6238 19.4081 17.8172 19.3801 18.0118 19.1574C18.2065 18.9361 18.8438 18.1867 19.0652 17.8534C19.2865 17.5201 19.5092 17.5761 19.8145 17.6867C20.1198 17.7974 21.7558 18.6027 22.0878 18.7694C22.4212 18.9361 22.6425 19.0187 22.7252 19.1574C22.8078 19.2947 22.8078 19.9614 22.5305 20.7387Z" fill="#2D574C"/>
</svg>
